<svg xmlns="http://www.w3.org/2000/svg" xmlns:xlink="http://www.w3.org/1999/xlink" viewBox="0 0 600 600" width="128" height="128">
  <defs>
    <polygon id="logo-a" points="135.21 .33 135.21 .33 135.21 .33 .6 48.33 21.13 226.32 135.21 289.51 135.21 289.51 135.21 289.51 249.29 226.32 269.82 48.33"/>
  </defs>
  <g fill="none" fill-rule="evenodd">
    <path fill="#000" d="M278.428.871c132.9-9.194 221.02 55.695 271.406 134.755 25.264 39.64 50.051 99.847 50.166 161.707.122 67.212-21.701 125.416-50.166 168.122-29.256 43.895-67.095 80.15-114.479 103.955-79.206 39.794-189.9 40.882-262.403 2.567C92.206 529.307 30.123 468.404 7.02 362.785c-9.246-42.267-10.308-96.88 2.572-143.738 3.023-10.992 8.516-22.56 12.864-33.368 20.894-51.938 56.46-97.102 100.33-128.34 17.628-12.551 39.014-25.034 57.883-33.368 23.477-10.367 63.005-20.696 97.758-23.1z"/>
    <path fill="#FFF" d="M233.472 23.296c-49.573 12.77-85.92 35.646-117.547 60.318-45.606 35.576-74.68 85.223-91.714 145.018-18.95 66.524-6.777 147.025 19.377 197.635 27.121 52.485 63.537 93.226 114.964 121.919 50.032 27.914 120.401 45.839 193.761 32.083 65.179-12.22 114.681-40.43 155.009-82.134 53.955-55.799 97.32-158.572 68.463-266.937-7.714-28.962-17.8-59.147-33.587-84.7-8.529-13.806-21.045-27.388-33.585-41.068-47.324-51.633-123.812-96.127-222.18-89.834-18.72 1.197-35.171 3.117-52.96 7.7z"/>
    <path fill="#000" fill-rule="nonzero" d="M280.585 30.784c119.61-8.275 198.919 50.125 244.265 121.28 22.738 35.676 45.047 89.861 45.15 145.535.11 60.49-19.531 112.875-45.15 151.31-26.33 39.506-60.385 72.135-103.03 93.56-71.286 35.814-170.91 36.794-236.164 2.31-72.67-38.403-128.545-93.216-149.337-188.273-8.321-38.04-9.278-87.193 2.315-129.365 2.72-9.892 7.664-20.304 11.577-30.03 18.805-46.745 50.814-87.392 90.297-115.506 15.866-11.296 35.113-22.531 52.095-30.031 21.13-9.331 56.705-18.627 87.982-20.79z"/>
    <path fill="#FFF" d="M465.427 385.154l-10.493 10.494 3.824 3.824a96.304 96.304 0 0 1-1.056 1.773l-4.183-4.183-20.424 20.424 6.883 6.884c-.445.496-.893.99-1.345 1.483l-6.952-6.952-20.425 20.424 6.401 6.401c-.518.424-1.039.846-1.562 1.266l-6.253-6.253-20.424 20.424 2.393 2.393c-.599.343-1.201.684-1.806 1.022l-2.001-2.001-6.422 6.421a182.93 182.93 0 0 1-5.36 2.532l10.368-10.367-20.423-20.424-20.425 20.424 16.138 16.14c-.697.246-1.396.49-2.1.729l-15.452-15.454L323.904 483l2.975 2.975c-.823.122-1.648.24-2.477.352l-1.912-1.913-2.454 2.454c-1.048.118-2.1.228-3.159.33l4.198-4.198-20.423-20.424L280.228 483l4.504 4.505c-1.035-.08-2.067-.17-3.096-.268l-2.823-2.823-2.268 2.268c-.837-.102-1.671-.21-2.503-.324l3.357-3.358-20.423-20.424-16.151 16.151c-.71-.23-1.419-.466-2.124-.704l16.861-16.86-20.423-20.425-20.424 20.424 12.616 12.617c-1.66-.679-3.3-1.376-4.92-2.091l-9.11-9.112-3.17 3.17c-.619-.325-1.233-.654-1.843-.985l3.599-3.599-20.424-20.424-7.978 7.978c-.537-.408-1.07-.817-1.601-1.228l8.165-8.165-20.424-20.424-9.235 9.235c-.46-.484-.917-.97-1.371-1.457l9.192-9.192-20.423-20.425-6.813 6.813c-.378-.566-.752-1.134-1.124-1.704l6.523-6.523-20.424-20.424-.122.123a534.707 534.707 0 0 1-2.254-5.328l2.377 2.376 20.424-20.423-20.423-20.424-9.76 9.76c-.132-.81-.26-1.626-.384-2.445l8.73-8.73-10.857-10.857a263.12 263.12 0 0 1-.191-3.02l12.462 12.463 20.424-20.423-20.424-20.425-12.902 12.902c.001-.95.007-1.898.018-2.846l11.47-11.47-10.274-10.274c.087-.856.178-1.707.275-2.554l11.413 11.414 20.424-20.423-20.424-20.425-7.594 7.594c.324-1.305.662-2.586 1.015-3.843l5.165-5.165-2.66-2.66c.246-.69.496-1.383.75-2.078l3.324 3.324 20.424-20.424-11.006-11.006c.332-.609.667-1.217 1.006-1.823l11.414 11.415 20.424-20.424-15.558-15.559c.415-.527.833-1.052 1.254-1.574l15.718 15.719 20.424-20.423-16.424-16.424c.487-.458.976-.913 1.466-1.364l16.372 16.373 20.424-20.423-13.8-13.801c.573-.369 1.15-.734 1.731-1.097l13.483 13.483 20.424-20.423-6.753-6.753c.67-.27 1.345-.538 2.025-.804l6.142 6.143 12.659-12.659c1.4-.458 2.796-.913 4.189-1.36l-15.434 15.433 20.424 20.424 20.424-20.424-17.793-17.793c.73-.215 1.461-.426 2.195-.634l17.012 17.013 20.424-20.423-1.874-1.874c.943-.008 1.886-.008 2.83 0l.458.46.448-.448c.922.013 1.844.034 2.765.063l-1.799 1.799 20.424 20.424 17.448-17.448c.765.175 1.527.355 2.289.54l-18.323 18.322 20.424 20.424 20.423-20.423-16.87-16.87c1.32.359 2.635.73 3.942 1.113l14.342 14.342 6.89-6.89c.668.275 1.334.553 1.996.833l-7.472 7.472 20.424 20.423 14.059-14.058c.585.36 1.167.722 1.743 1.085l-14.388 14.388 20.423 20.423 15.227-15.226 1.414 1.414-15.226 15.226 20.424 20.425 15.162-15.161 1.414 1.414-15.162 15.162 20.424 20.423 10.938-10.938c.337.606.672 1.214 1.005 1.824l-10.53 10.528 20.425 20.425 2.903-2.903c.254.692.503 1.386.748 2.08l-2.237 2.237 4.447 4.447c.41 1.334.803 2.67 1.177 4.005l-7.038-7.038-20.424 20.423 20.424 20.424 11.486-11.486c.108.842.21 1.683.306 2.523l-10.378 10.377 11.577 11.577c-.005.932-.017 1.863-.036 2.793l-12.955-12.956-20.424 20.424 20.423 20.424 11.928-11.927c-.117 1.071-.243 2.14-.378 3.207l-10.135 10.135 7.093 7.093c-.174.766-.353 1.53-.536 2.292l-7.972-7.971-20.424 20.424 18.056 18.056c-.29.652-.582 1.302-.879 1.95l-18.591-18.592-20.424 20.423 20.423 20.424 15.137-15.136a176.034 176.034 0 0 1-3.077 5.73l-.152.326zm8.518-142.371l-20.424-20.425-20.424 20.424 20.424 20.424 20.424-20.423zm-21.839-21.839l-20.423-20.423-20.423 20.423 20.423 20.423 20.423-20.423zm-21.837-21.838l-20.425-20.424-20.423 20.423 20.425 20.425 20.423-20.424zm-21.839-21.839l-20.423-20.423-20.423 20.423 20.423 20.424 20.423-20.424zm-21.837-21.837l-20.424-20.424-20.423 20.423 20.423 20.424 20.424-20.423zm-85.937-42.263l-20.423 20.423 20.423 20.424 20.424-20.423-20.424-20.424zm21.838 21.838L302.07 155.43l20.424 20.423 20.423-20.423-20.423-20.424zm21.838 21.838l-20.424 20.424 20.423 20.424 20.424-20.424-20.423-20.424zm21.837 21.838l-20.423 20.424 20.423 20.424 20.424-20.424-20.424-20.424zm21.838 21.838l-20.424 20.424 20.424 20.425 20.424-20.424-20.424-20.425zm21.839 21.84l-20.424 20.423 20.423 20.423 20.424-20.423-20.423-20.424zm21.837 21.837L411.26 264.62l20.424 20.424 20.424-20.424-20.424-20.424zm21.838 21.838l-20.424 20.424 20.424 20.424 20.424-20.424-20.424-20.424zm20.423 64.1l-20.423-20.423-20.425 20.424 20.424 20.424 20.424-20.424zm-21.838-21.838l-20.423-20.424-20.424 20.424 20.423 20.424 20.424-20.424zm-21.837-21.838l-20.424-20.424-20.424 20.424 20.423 20.424 20.425-20.424zM408.43 264.62l-20.424-20.424-20.424 20.424 20.423 20.424 20.425-20.424zm-21.838-21.838l-20.424-20.425-20.424 20.424 20.424 20.425 20.424-20.424zm-21.838-21.84L344.33 200.52l-20.424 20.424 20.424 20.424 20.424-20.424zm-21.838-21.837l-20.423-20.424-20.424 20.424 20.423 20.424 20.424-20.424zm-21.838-21.838l-20.423-20.424-20.424 20.424 20.423 20.423 20.424-20.423zm-21.837-21.839l-20.424-20.424-20.424 20.424 20.424 20.424 20.424-20.424zm-64.1-20.424l-20.424 20.424 20.424 20.424 20.424-20.424-20.424-20.424zm21.838 21.838l-20.424 20.424 20.424 20.424 20.424-20.423-20.424-20.425zm21.838 21.839l-20.424 20.423 20.423 20.424 20.424-20.423-20.423-20.424zm21.837 21.838l-20.423 20.423 20.423 20.424 20.424-20.423-20.424-20.424zm21.838 21.838l-20.424 20.424 20.424 20.423 20.423-20.423-20.423-20.424zm21.837 21.838l-20.423 20.424 20.424 20.424 20.424-20.423-20.425-20.425zm21.839 21.84l-20.424 20.422 20.424 20.424 20.423-20.423-20.423-20.424zm21.837 21.837l-20.423 20.424 20.424 20.424 20.423-20.424-20.424-20.424zm21.838 21.839l-20.423 20.423 20.423 20.424 20.424-20.423-20.424-20.424zm21.838 21.838l-20.424 20.423 20.424 20.424 20.424-20.423-20.424-20.424zm20.423 64.1l-20.423-20.424-20.424 20.424 20.423 20.423 20.424-20.424zm-21.837-21.839l-20.424-20.424-20.424 20.424 20.423 20.424 20.425-20.424zm-21.838-21.838l-20.423-20.424-20.425 20.424 20.424 20.424 20.424-20.424zm-21.838-21.838L366.17 309.71l-20.425 20.424 20.424 20.424 20.424-20.424zm-21.838-21.838l-20.423-20.424-20.424 20.424 20.423 20.424 20.424-20.424zm-21.837-21.839l-20.424-20.424-20.424 20.424 20.424 20.424 20.424-20.424zm-21.839-21.838l-20.423-20.424-20.424 20.424 20.423 20.424 20.424-20.424zm-21.837-21.838l-20.424-20.424-20.424 20.423 20.424 20.424 20.424-20.423zm-21.838-21.839L256.98 200.52l-20.424 20.423 20.423 20.424 20.424-20.424zm-21.837-21.838l-20.424-20.424-20.424 20.424 20.424 20.424 20.424-20.424zm-21.838-21.838l-20.424-20.424-20.424 20.424 20.424 20.424 20.424-20.424zm-42.262 1.414l-20.423 20.423 20.423 20.424 20.424-20.423-20.424-20.424zm21.838 21.838l-20.424 20.424 20.424 20.424 20.423-20.424-20.423-20.424zm21.838 21.839l-20.424 20.423 20.423 20.424 20.424-20.424-20.423-20.423zm21.837 21.838l-20.424 20.423 20.424 20.424 20.424-20.423-20.424-20.424zm21.838 21.838l-20.424 20.424 20.423 20.423 20.424-20.423-20.423-20.424zm21.837 21.838l-20.424 20.424 20.424 20.424 20.424-20.423-20.424-20.425zm21.839 21.839l-20.424 20.423 20.423 20.425 20.424-20.424-20.423-20.424zm21.837 21.838l-20.424 20.424 20.424 20.424 20.424-20.424-20.424-20.424zm21.838 21.838l-20.424 20.424 20.423 20.424 20.424-20.424-20.423-20.424zm21.837 21.838l-20.424 20.424 20.424 20.425 20.424-20.424-20.424-20.425zm21.838 21.839l-20.424 20.424 20.423 20.424 20.424-20.425-20.423-20.423zm-1.415 42.262L388.005 418.9l-20.424 20.424 20.423 20.423 20.424-20.423zm-21.837-21.838l-20.424-20.425-20.424 20.424 20.424 20.425 20.424-20.424zm-21.838-21.839l-20.423-20.424-20.424 20.424 20.423 20.424 20.424-20.424zm-21.838-21.838l-20.423-20.424-20.424 20.424 20.423 20.424 20.424-20.424zm-21.837-21.838l-20.424-20.424-20.424 20.423 20.424 20.425 20.424-20.424zm-21.838-21.839l-20.424-20.424-20.424 20.424 20.424 20.424 20.424-20.424zm-21.838-21.838L256.98 287.87l-20.424 20.423 20.423 20.424 20.424-20.423zm-21.837-21.839l-20.424-20.424-20.424 20.424 20.424 20.424 20.424-20.424zm-21.838-21.838l-20.423-20.424-20.424 20.424 20.423 20.424 20.424-20.424zM211.89 242.78l-20.424-20.424-20.424 20.424 20.424 20.424 20.424-20.424zm-21.838-21.838l-20.424-20.425-20.424 20.424 20.424 20.424 20.424-20.423zm-42.262 1.413l-20.424 20.424 20.424 20.424 20.424-20.423-20.424-20.425zm21.838 21.839l-20.424 20.424 20.423 20.424 20.425-20.424-20.424-20.424zm21.838 21.838l-20.424 20.424 20.423 20.424 20.424-20.424-20.423-20.424zm21.837 21.838l-20.424 20.424 20.423 20.424 20.425-20.424-20.424-20.424zm21.838 21.839l-20.425 20.424 20.424 20.424 20.424-20.424-20.423-20.424zm21.837 21.838l-20.424 20.424 20.423 20.424 20.425-20.424-20.424-20.424zm21.838 21.839l-20.424 20.424 20.423 20.424 20.425-20.424-20.424-20.424zm21.838 21.838l-20.425 20.424 20.424 20.424 20.424-20.424-20.423-20.424zm21.837 21.838l-20.424 20.425 20.423 20.423 20.425-20.424-20.424-20.424zM344.33 418.9l-20.425 20.425 20.424 20.424 20.425-20.424-20.424-20.425zm-1.416 42.263L322.49 440.74l-20.424 20.423 20.424 20.425 20.423-20.424zm-21.837-21.838L300.653 418.9l-20.424 20.423 20.423 20.424 20.424-20.423zm-21.838-21.838l-20.423-20.424-20.423 20.423 20.423 20.424 20.423-20.423zm-21.837-21.839l-20.424-20.424-20.423 20.423 20.423 20.425 20.424-20.424zm-21.838-21.838l-20.423-20.425-20.424 20.424 20.424 20.424 20.423-20.423zm-21.838-21.84l-20.423-20.423-20.423 20.423 20.423 20.424 20.423-20.423zm-21.837-21.837l-20.423-20.425-20.424 20.424 20.423 20.424 20.424-20.423zm-21.838-21.839l-20.423-20.424-20.423 20.424 20.423 20.424 20.423-20.424zm-21.837-21.838l-20.423-20.424-20.424 20.423 20.424 20.424 20.423-20.423zm-20.423 23.252l-20.424 20.424 20.423 20.423 20.424-20.423-20.423-20.424zm21.837 21.838l-20.424 20.424 20.423 20.424 20.424-20.424-20.423-20.424zm21.837 21.838l-20.424 20.424 20.424 20.424 20.424-20.423-20.424-20.425zm21.838 21.839l-20.424 20.424L213.3 416.07l20.424-20.424-20.423-20.424zm21.838 21.839l-20.424 20.423 20.423 20.425 20.424-20.424-20.423-20.424zm21.837 21.838l-20.424 20.424 20.423 20.424 20.424-20.424-20.423-20.424zm21.838 21.838l-20.424 20.424 20.422 20.424 20.424-20.424-20.422-20.424zm-45.09-1.414l-20.424-20.425-20.424 20.424 20.424 20.425 20.424-20.424zm-21.838-21.839l-20.423-20.424-20.424 20.424 20.423 20.424 20.424-20.424zm-21.837-21.838l-20.424-20.425-20.424 20.424 20.423 20.424 20.425-20.423zm-21.838-21.839l-20.423-20.424-20.424 20.424 20.423 20.424 20.424-20.424z"/>
    <g fill-rule="nonzero" transform="translate(164.5 171.5)">
      <use fill="#DD0031" fill-rule="evenodd" xlink:href="#logo-a"/>
      <path stroke="#000" stroke-width="4" d="M135.209-1.793L271.99 46.984l-20.831 180.59-115.95 64.22-115.95-64.22-20.831-180.59L135.209-1.793z"/>
      <polygon fill="#C3002F" points="135.21 .33 135.21 32.43 135.21 32.28 135.21 178.75 135.21 178.75 135.21 289.51 135.21 289.51 249.29 226.32 269.82 48.33"/>
      <path fill="#FFF" d="M135.209 32.284l-84.15 188.689h31.375l16.917-42.22h71.427l16.917 42.22h31.376L135.209 32.284zm24.58 120.443h-49.16l24.58-59.137 24.58 59.137z"/>
    </g>
    <path fill="#FFF" fill-rule="nonzero" d="M451.499 475.646l.073.099c7.296 9.999 5.155 23.987-5.59 31.829-10.745 7.841-24.548 5.64-31.844-4.358l-.073-.099c-7.296-9.999-5.155-23.988 5.59-31.829 10.745-7.841 24.548-5.641 31.844 4.358zm-27.657 20.183l.073.099c3.666 5.024 10.492 6.752 15.814 2.868 5.273-3.848 5.683-10.703 2.017-15.728l-.073-.099c-3.667-5.024-10.492-6.752-15.765-2.904-5.323 3.884-5.733 10.739-2.066 15.764zm-42.686 45.354l-10.965 3.518-30.739-35.734 12.197-3.913 5.342 6.37 15.833-5.08.58-8.271 11.962-3.838-4.21 46.948zm-18.04-21.958l8.318 10.202.889-13.156-9.207 2.954zm-43.411 11.208l-.096 24.203-12.132-.048.095-23.957c.025-6.22-3.104-9.188-7.908-9.208-4.804-.019-7.956 2.801-7.979 8.836l-.097 24.264-12.132-.048.095-23.895c.055-13.918 8.023-19.984 20.279-19.935 12.255.05 19.928 6.301 19.875 19.788zm-84.064 4.229l12.368 3.775-3.056 10.013-36.163-11.037 3.056-10.013 12.368 3.774 9.527-31.216 11.426 3.487-9.526 31.217zm-59.153-11.221l-9.946-6.619 8.938-13.432-12.766-8.496-8.939 13.433-9.946-6.619 23.883-35.889 9.947 6.619-9.076 13.638 12.767 8.496 9.075-13.638 9.946 6.619-23.883 35.888z"/>
    <path fill="#FFF" fill-rule="nonzero" d="M148.501 125.354l-.073-.099c-7.296-9.999-5.155-23.987 5.59-31.829 10.745-7.841 24.548-5.64 31.844 4.358l.073.099c7.296 9.999 5.155 23.988-5.59 31.829-10.745 7.841-24.548 5.641-31.844-4.358zm27.657-20.183l-.073-.099c-3.666-5.024-10.492-6.752-15.814-2.868-5.273 3.848-5.683 10.703-2.017 15.728l.073.099c3.667 5.024 10.492 6.752 15.765 2.904 5.323-3.884 5.733-10.739 2.066-15.764zm42.686-45.354l10.965-3.518 30.739 35.734-12.197 3.913-5.342-6.37-15.833 5.08-.58 8.271-11.962 3.838 4.21-46.948zm18.04 21.958l-8.318-10.202-.889 13.156 9.207-2.954zm43.411-11.208l.096-24.203 12.132.048-.095 23.957c-.025 6.22 3.104 9.188 7.908 9.208 4.804.019 7.956-2.801 7.979-8.836l.097-24.264 12.132.048-.095 23.895c-.055 13.918-8.023 19.984-20.279 19.935-12.255-.05-19.928-6.301-19.875-19.788zm84.064-4.229l-12.368-3.775 3.056-10.013 36.163 11.037-3.056 10.013-12.368-3.774-9.527 31.216-11.426-3.487 9.526-31.217zm59.153 11.221l9.946 6.619-8.938 13.432 12.766 8.496 8.939-13.433 9.946 6.619-23.883 35.889-9.947-6.619 9.076-13.638-12.767-8.496-9.075 13.638-9.946-6.619 23.883-35.888z"/>
  </g>
</svg>
